P3
#
#
24 24
255
159 158 156 181 182 183 189 190 191 183 185 186 173 174 177 197 196 206 204 202 213 199 198 203 190 188 187 131 129 122 144 138 129 186 181 183 193 190 202 186 187 194 132 135 131 43 37 29 31 20 12 41 24 17 51 27 22 58 31 26 59 35 29 58 36 29 56 36 29 55 37 29
145 144 138 169 170 167 191 192 192 182 185 188 169 172 177 187 187 193 199 199 206 194 192 196 150 141 136 81 65 52 92 76 63 169 159 154 192 188 192 192 192 196 177 177 178 136 130 135 109 101 104 94 85 84 81 71 66 69 57 50 58 46 39 49 37 30 44 32 25 43 32 24
121 119 109 146 145 139 178 178 175 197 199 201 186 189 193 180 180 183 196 196 199 157 154 155 93 81 75 83 62 49 76 56 43 143 131 125 176 172 173 182 182 185 193 192 195 197 194 201 199 196 202 190 188 191 180 178 178 169 165 163 146 137 132 114 104 99 77 68 63 88 79 74
94 91 79 98 96 86 95 95 89 137 137 136 147 148 150 141 141 142 143 142 142 97 92 88 78 67 59 74 58 46 72 53 41 144 131 125 175 171 172 177 176 180 181 181 184 191 191 195 198 199 204 199 199 205 205 205 213 213 211 218 175 167 168 132 122 122 143 134 134 166 157 157
93 89 74 74 70 57 39 37 28 38 38 33 40 41 38 44 44 42 65 62 58 65 57 50 69 59 50 56 44 33 75 57 45 150 138 131 176 173 174 174 174 177 175 175 177 186 186 190 206 207 212 204 204 210 197 197 205 167 166 172 108 102 102 76 70 68 102 96 95 123 117 115
88 82 65 79 74 58 48 44 32 36 34 26 34 33 28 38 37 34 51 46 38 48 38 27 63 54 43 50 42 32 67 50 38 138 126 119 180 176 178 168 168 171 182 181 185 184 181 188 186 183 189 175 172 176 136 134 135 84 81 80 50 47 41 39 35 29 43 39 33 48 44 37
89 83 65 81 75 59 50 46 34 37 35 26 33 33 26 36 36 30 47 40 31 58 47 35 49 41 30 36 30 23 59 44 34 87 76 69 106 104 104 119 119 121 130 129 132 136 130 137 98 92 97 81 76 76 49 44 39 32 28 20 29 27 17 28 25 16 28 26 16 25 23 13
82 77 64 65 61 51 45 45 35 42 44 34 38 41 32 35 33 25 43 38 30 57 50 42 53 48 40 40 34 27 52 43 36 43 39 32 24 25 21 34 34 33 40 38 37 39 37 38 30 28 28 28 27 25 27 26 23 30 29 25 29 28 23 28 27 22 27 26 21 27 26 20
64 60 49 53 50 42 41 41 31 41 43 32 36 38 27 33 30 21 37 33 24 40 36 28 46 42 33 41 36 28 43 36 30 31 29 22 17 20 14 20 21 18 23 21 20 22 22 20 23 24 22 25 25 23 23 23 21 25 25 23 27 26 22 27 26 22 24 23 19 24 23 19
73 69 58 54 51 40 47 45 34 38 37 26 34 32 21 37 33 22 38 34 24 42 38 27 38 34 23 40 35 25 43 36 29 25 23 16 17 20 14 19 20 17 21 19 17 20 20 18 20 20 18 20 20 18 20 20 18 22 22 20 23 22 19 25 24 20 25 24 20 25 24 20
82 79 66 56 53 40 68 64 52 62 58 46 53 48 36 47 43 31 41 37 26 46 42 30 45 41 29 40 36 25 39 32 26 22 21 14 17 19 13 18 19 16 19 17 16 19 18 16 19 19 17 18 18 16 19 19 17 21 20 18 23 22 19 25 24 20 25 24 20 25 24 20
82 80 64 68 65 52 96 90 77 81 72 61 64 55 43 62 57 43 45 41 27 48 44 30 44 41 27 31 27 14 34 27 20 22 20 13 17 19 13 18 19 16 20 18 16 20 19 17 20 20 18 18 18 16 19 19 17 20 20 18 23 22 19 25 24 20 26 25 21 25 24 20
77 75 60 62 59 44 101 94 79 82 72 58 67 56 44 51 47 35 44 43 30 55 52 39 44 41 26 30 24 11 28 22 16 20 19 13 17 19 14 18 19 16 19 18 16 20 20 18 21 21 19 19 19 17 19 19 17 20 20 18 23 22 19 25 24 20 26 25 21 25 24 20
63 60 51 74 68 56 88 82 62 87 78 59 59 48 36 42 41 35 51 51 44 40 37 27 39 33 21 40 33 22 26 24 19 18 18 15 19 19 16 19 19 17 18 18 16 20 20 18 22 22 20 19 19 17 19 19 17 19 19 17 23 22 18 27 26 22 26 25 21 24 23 19
73 69 59 79 73 59 81 74 55 93 84 66 51 40 27 41 33 22 46 40 29 39 33 21 38 32 21 36 31 21 22 21 17 18 18 16 20 20 18 19 19 17 18 18 16 20 20 18 21 21 19 19 19 17 19 19 17 19 19 17 22 21 17 30 28 24 28 27 23 23 22 18
100 95 81 108 102 87 90 83 67 73 63 48 49 37 22 51 35 17 57 42 25 68 59 45 44 39 30 27 25 18 18 18 15 18 18 16 21 21 19 20 20 18 20 20 18 21 21 19 20 20 18 19 19 17 19 19 17 19 19 17 21 20 16 27 26 22 29 28 24 24 23 19
104 99 79 132 127 111 130 122 110 57 48 36 75 62 48 84 67 48 74 59 42 63 54 42 40 37 29 25 25 20 20 20 17 19 19 17 21 21 19 21 21 19 22 22 20 22 22 20 19 19 17 18 18 16 19 19 17 19 19 16 20 20 16 25 24 20 29 28 24 24 23 19
100 96 73 111 107 89 142 134 124 86 75 66 107 95 82 103 92 77 58 49 36 38 33 23 32 31 23 26 27 22 21 21 19 20 20 18 21 21 19 21 21 19 21 21 19 21 21 19 20 20 18 19 19 18 20 20 18 20 20 18 21 20 16 25 24 21 30 29 25 24 23 19
68 63 40 58 52 34 90 82 71 110 102 91 89 81 67 55 49 38 28 25 15 28 26 18 27 27 21 25 25 20 22 22 20 21 21 19 21 21 19 21 21 19 21 21 19 20 20 18 22 22 19 21 22 18 21 20 16 22 21 16 22 22 17 23 23 18 29 28 23 24 23 18
72 64 46 67 59 43 77 71 56 79 77 61 45 45 28 27 27 14 23 23 13 23 23 16 24 23 19 23 22 18 22 22 20 20 20 18 19 19 17 20 20 18 20 20 18 20 21 17 21 23 18 25 25 19 23 22 15 22 20 13 20 21 14 21 23 16 24 25 19 21 22 16
59 55 40 51 46 34 51 48 35 52 53 39 38 40 25 25 26 14 27 27 17 25 24 18 23 22 17 21 20 17 21 21 18 20 20 18 18 18 16 18 18 16 19 19 16 23 23 18 21 22 16 24 25 20 24 27 22 22 24 20 23 25 21 21 22 18 20 22 18 19 21 17
34 34 22 30 28 18 40 39 29 44 44 33 35 35 24 24 24 13 29 29 19 26 25 19 21 20 16 20 20 16 21 21 19 22 22 21 20 20 18 18 18 17 20 20 17 24 23 17 21 21 15 21 22 17 24 27 23 23 26 22 29 26 24 28 25 22 27 24 21 25 22 19
31 31 18 34 31 20 43 38 28 48 43 33 41 35 25 33 31 20 27 27 17 26 25 18 21 20 15 20 19 15 22 21 19 24 24 22 20 20 18 18 18 17 22 22 18 25 23 16 24 21 12 26 22 14 28 24 15 31 26 16 40 30 20 44 34 23 45 35 25 41 30 20
31 28 13 35 29 16 42 33 21 52 40 29 48 36 25 40 38 28 29 30 21 23 23 17 20 20 16 20 19 16 19 19 17 20 20 18 19 19 18 18 18 17 21 21 19 23 22 17 25 21 12 36 26 12 46 31 13 60 41 20 70 51 28 72 54 31 76 58 35 78 60 37
