P3
16 16
255
231 167 138 215 20 194 193 187 241 8 248 49 173 237 38 208 220 232 168 136 15 178 210 137 92 148 154 233 66 108 85 44 9 239 72 72 89 149 45 33 230 20 161 43 13 49 212 177 
141 119 209 29 63 122 83 182 152 188 128 64 50 0 14 110 153 6 11 168 169 148 232 36 252 197 44 169 227 13 129 172 225 241 108 239 30 147 20 212 146 106 23 225 176 243 162 9 
67 252 209 157 223 225 59 71 48 5 139 76 77 48 65 110 12 29 20 119 166 107 17 145 221 107 28 163 74 178 60 215 133 194 166 47 228 196 6 116 29 176 252 1 50 159 99 188 
70 80 172 78 113 28 195 51 252 51 220 23 117 219 120 93 61 91 242 244 237 177 193 121 157 12 224 222 192 205 89 147 76 253 180 112 164 112 176 216 108 145 63 115 51 123 225 201 
159 206 33 141 7 54 132 109 133 136 243 27 162 181 7 103 24 35 118 95 30 137 11 146 161 60 97 62 32 23 26 72 202 170 242 3 121 33 144 92 70 9 91 56 90 245 183 224 
158 19 245 147 113 234 25 120 176 223 140 90 119 87 250 59 28 143 158 222 121 6 29 32 209 154 93 64 111 193 156 126 56 166 226 90 42 94 185 118 36 113 219 71 37 29 172 100 
159 90 243 158 220 43 102 4 64 247 228 20 154 82 24 28 195 155 228 115 88 65 213 8 158 39 60 15 92 41 73 14 128 100 73 100 79 203 243 239 37 99 231 120 35 109 248 1 
168 151 86 129 48 197 9 150 3 130 142 199 84 225 5 24 143 119 46 59 204 194 4 9 175 29 126 136 38 208 116 146 9 10 253 238 45 232 242 8 72 1 218 159 207 151 2 78 
59 199 121 178 211 34 77 13 2 103 18 199 34 37 160 199 20 17 231 73 179 75 104 254 174 135 195 200 220 97 54 112 160 127 129 95 41 188 67 173 254 200 178 200 236 66 28 114 
218 25 138 114 26 102 179 159 145 42 153 141 123 41 183 109 245 126 164 30 81 143 246 243 155 11 65 47 203 233 25 232 30 133 127 18 227 89 148 32 5 98 211 172 109 74 46 126 
78 183 183 195 184 219 157 117 97 87 155 8 153 21 50 26 10 108 177 57 33 115 118 138 23 21 12 231 160 249 37 75 240 240 81 241 252 105 102 65 67 91 176 63 187 201 80 95 
217 156 76 222 97 190 61 54 119 209 177 55 187 181 203 195 200 182 185 125 59 141 28 204 81 39 111 199 17 121 3 15 108 116 50 115 120 245 16 140 107 112 244 150 86 205 126 207 
119 210 24 78 205 140 124 149 186 106 97 121 203 86 38 35 245 9 11 242 57 215 220 239 76 148 70 190 191 24 199 204 104 59 122 210 180 91 74 214 68 224 189 87 180 160 243 75 
179 105 156 76 241 219 127 45 96 81 31 21 56 99 16 58 201 200 224 47 211 20 29 197 18 58 69 148 47 67 4 96 206 227 82 179 251 126 46 22 2 89 203 163 181 176 239 111 
67 164 201 22 111 44 53 227 40 228 198 46 157 5 75 191 112 28 171 253 39 52 148 142 133 53 145 158 242 184 119 98 253 29 111 157 30 141 217 177 196 184 130 226 187 73 89 212 
57 158 65 253 141 79 66 162 79 215 19 1 122 191 166 32 242 216 40 145 193 147 251 35 235 172 35 102 32 9 21 139 47 52 117 163 131 225 185 105 119 251 164 135 240 252 50 252 
