P3
16 16
255
66 42 184 205 182 65 188 248 204 171 37 99 135 176 88 39 27 205 40 242 196 36 84 201 161 203 244 171 231 69 202 176 19 166 173 148 154 72 152 114 232 211 1 224 139 23 90 162 
122 236 29 72 61 139 194 148 246 191 173 74 100 242 98 118 37 254 78 11 247 136 101 120 232 32 53 220 3 206 0 207 41 169 203 7 159 132 32 231 164 59 207 101 251 11 177 104 
33 128 14 176 197 194 66 188 193 205 141 168 64 103 20 246 144 101 1 192 57 27 103 132 121 37 233 100 160 197 151 5 57 166 251 229 213 34 101 47 19 193 213 192 17 185 34 206 
251 251 93 42 120 59 144 53 192 80 140 187 182 25 159 230 2 70 27 230 27 254 29 137 94 75 1 233 224 244 11 231 190 236 157 140 134 204 184 214 31 196 107 101 169 177 174 94 
242 240 115 3 253 177 177 143 65 117 83 122 223 205 93 55 63 17 181 42 16 232 95 23 172 87 145 175 92 6 17 142 144 50 25 43 179 132 123 166 247 210 152 122 104 5 238 184 
223 95 213 38 43 130 140 157 177 165 234 135 0 248 82 145 177 154 49 78 19 126 252 180 183 122 202 130 33 155 54 162 94 212 52 17 228 10 45 247 238 33 37 197 218 184 14 39 
215 147 29 235 220 82 88 167 208 246 77 13 157 245 4 241 134 138 28 162 137 234 205 5 100 153 60 57 175 62 135 154 28 12 50 165 203 188 31 53 162 51 18 112 128 179 181 43 
100 177 188 208 87 220 180 64 20 208 75 169 205 249 46 54 138 155 65 107 234 41 8 125 27 8 98 250 233 148 164 131 96 177 75 134 223 228 120 79 115 249 224 136 63 116 216 20 
30 13 36 70 238 11 206 231 110 240 124 143 129 225 107 239 127 162 204 180 58 226 245 28 105 193 175 157 219 226 128 137 118 168 188 121 16 27 176 133 114 123 236 110 14 37 113 120 
182 74 134 86 113 117 10 192 130 155 127 1 224 93 89 83 168 62 235 184 121 238 166 65 138 90 250 1 144 184 230 142 214 216 85 110 16 153 157 211 48 28 228 114 142 155 29 200 
68 204 67 173 99 239 181 72 71 240 104 98 174 78 221 168 65 160 85 191 245 147 114 75 12 232 133 165 88 45 164 71 63 193 86 90 60 128 228 40 36 171 135 226 171 95 65 13 
203 54 196 215 248 238 242 254 83 118 230 219 131 219 30 27 80 85 97 10 221 113 125 88 75 67 246 61 73 105 202 138 194 171 114 29 104 199 223 24 59 124 237 217 225 203 73 1 
196 173 157 126 37 115 180 97 41 98 55 207 175 126 76 91 60 154 83 130 144 126 157 90 245 198 216 116 15 55 221 48 211 252 103 127 26 247 144 110 155 125 60 34 88 250 227 158 
46 57 182 154 123 56 119 218 62 199 21 102 156 73 231 235 183 81 234 111 171 203 6 218 147 24 173 58 116 253 144 241 149 9 72 133 212 3 69 127 24 183 65 21 82 176 227 116 
206 1 167 195 10 21 180 188 216 154 147 10 130 1 144 98 82 202 107 178 160 223 51 240 122 114 140 164 50 186 115 50 79 6 6 61 90 233 51 201 145 142 144 165 106 132 245 163 
8 2 105 1 217 195 40 114 34 36 113 172 138 62 135 101 5 125 239 181 236 222 86 59 72 217 225 200 144 27 3 59 63 196 183 74 175 82 230 136 203 46 118 120 157 197 202 239 
