P3
24 24
255
124 77 36 121 77 36 120 78 40 114 74 39 107 72 34 125 88 49 129 89 51 106 68 31 108 71 33 124 83 42 121 78 39 108 68 29 98 65 23 110 74 37 117 80 49 120 80 41 134 93 50 140 106 66 131 95 58 141 98 66 135 92 51 127 84 45 121 79 41 119 79 40 
136 88 45 131 84 42 129 84 43 119 77 37 108 70 33 122 82 44 123 81 39 105 65 25 107 72 31 111 77 31 108 74 34 98 65 27 94 62 21 97 63 32 83 56 38 88 58 36 102 68 42 97 69 46 88 54 36 118 74 72 140 96 79 136 97 64 120 80 45 107 68 34 
136 88 44 132 83 40 122 74 30 121 74 31 127 83 46 138 94 54 124 79 34 120 79 39 107 71 34 80 50 14 68 43 17 74 41 17 101 51 21 105 56 23 65 37 16 58 36 19 63 37 18 78 51 31 136 93 83 122 68 80 139 86 79 151 106 69 129 87 49 108 68 36 
133 88 48 127 81 40 138 90 47 137 89 46 131 86 48 133 89 46 134 91 46 108 70 39 72 39 19 51 26 10 41 22 14 72 31 17 181 102 69 209 127 81 125 76 47 68 40 23 64 38 17 82 53 30 123 77 62 112 56 55 135 81 60 151 103 61 137 95 54 114 76 39 
119 81 44 123 82 43 128 85 44 130 85 44 121 80 40 137 97 54 131 94 53 74 42 20 54 25 16 50 29 16 44 29 18 86 39 15 203 106 56 217 109 62 162 90 71 100 58 49 77 42 27 75 43 24 74 39 24 76 35 22 107 67 36 135 96 59 135 97 58 129 91 49 
123 89 53 125 86 50 126 86 48 127 91 52 133 97 60 132 97 68 90 60 30 63 35 9 62 33 16 70 39 20 79 50 30 103 53 26 152 70 33 148 64 37 141 79 61 121 75 57 101 58 41 96 54 33 86 48 24 75 38 21 101 63 32 136 91 53 136 92 53 134 93 50 
133 100 64 137 100 66 139 102 68 134 102 66 141 111 81 121 87 68 80 40 13 97 53 17 90 45 17 98 56 30 137 91 57 139 84 49 148 87 54 134 73 37 138 82 46 134 85 57 140 92 76 175 129 106 142 99 53 102 61 26 108 67 25 135 90 41 131 87 45 133 91 51 
127 92 57 129 94 65 117 84 55 103 74 42 130 103 70 120 83 55 111 60 14 146 86 22 136 78 23 163 116 77 169 115 69 152 100 52 161 116 73 148 97 57 177 121 82 161 110 71 195 150 113 209 167 123 189 146 94 125 78 40 108 63 25 140 96 52 137 95 59 132 93 56 
147 110 74 121 89 65 84 56 34 88 61 33 109 80 44 101 57 23 138 79 19 213 150 59 178 123 41 191 150 98 211 169 122 189 148 99 205 164 110 207 162 115 213 164 118 191 143 91 199 158 97 188 151 88 161 121 76 130 83 50 124 77 38 131 87 51 130 91 61 131 93 60 
132 92 59 90 59 36 72 44 22 81 52 24 84 47 19 107 55 25 165 106 50 229 176 92 183 137 57 191 158 103 239 216 176 219 192 149 228 188 128 225 188 120 214 177 112 216 174 112 210 171 110 200 169 109 189 162 114 174 137 100 161 118 76 139 95 57 134 96 66 126 90 59 
136 95 62 80 47 21 89 57 32 105 68 40 96 51 26 129 81 45 192 152 113 185 148 107 145 101 51 203 162 121 223 200 170 242 227 196 244 227 186 238 220 165 241 219 163 227 197 144 225 191 139 235 209 157 219 206 164 224 208 181 215 192 156 156 118 78 128 89 57 129 95 62 
133 96 54 63 42 21 66 43 31 88 50 34 113 65 37 182 146 110 220 191 169 138 94 71 162 105 63 206 156 112 196 166 135 247 234 212 255 253 232 255 252 219 245 234 197 236 217 180 230 208 170 215 196 160 231 217 197 250 241 229 241 229 195 158 132 78 125 95 49 126 97 58 
132 87 49 64 40 21 84 59 41 112 69 37 163 121 75 223 204 166 206 182 157 145 90 56 196 133 84 204 157 110 220 188 156 243 226 208 245 237 226 239 233 215 234 224 201 231 217 192 195 181 152 150 137 100 208 193 154 250 241 216 227 216 173 163 142 78 145 127 60 143 129 62 
135 89 60 100 64 38 108 73 43 144 104 66 210 181 140 248 243 212 175 147 115 175 119 73 220 176 129 226 197 164 230 207 179 233 218 196 224 212 195 201 186 166 184 163 138 181 158 128 190 171 136 170 157 105 179 167 105 231 218 181 223 206 161 162 133 71 146 116 43 140 115 34 
126 91 56 122 83 48 93 58 32 179 154 138 238 226 212 248 243 229 170 134 104 185 132 88 241 214 177 230 218 195 187 169 142 180 160 131 166 146 115 146 119 85 149 116 79 157 124 83 184 157 110 216 195 141 212 198 152 236 221 197 236 212 176 166 125 63 136 85 16 134 81 13 
132 89 49 135 95 51 171 145 110 237 227 205 252 247 235 229 213 194 173 136 100 169 121 73 220 182 138 194 169 135 123 89 55 135 98 60 127 91 48 151 114 63 165 127 74 132 99 50 151 126 79 202 183 142 240 228 203 240 225 210 222 196 169 156 117 64 119 76 12 120 75 16 
130 86 45 140 102 59 219 196 161 244 232 210 210 199 186 193 173 151 166 129 92 153 104 55 191 146 96 179 145 105 128 86 47 147 102 58 149 106 59 172 131 78 147 108 54 128 94 45 141 113 67 173 150 112 202 183 160 190 171 147 198 175 146 152 124 86 100 72 26 109 81 34 
123 81 39 153 117 76 148 118 85 166 141 118 188 166 147 182 156 132 171 134 99 165 115 69 195 148 99 190 153 110 152 108 66 143 95 49 152 105 56 153 110 58 142 102 51 141 102 54 135 101 55 136 101 60 148 110 74 141 106 65 141 111 68 138 113 71 111 100 37 111 111 31 
138 90 50 151 111 71 128 91 52 136 97 61 175 136 104 173 136 107 189 151 118 205 160 120 201 157 113 168 131 89 151 108 65 145 97 53 146 101 52 149 106 57 153 110 61 149 108 61 144 104 59 144 105 59 145 104 59 143 102 60 129 96 48 123 103 39 124 126 30 113 135 14 
160 109 72 150 106 64 147 104 58 151 104 57 169 121 81 167 123 87 179 141 105 212 174 138 203 168 132 207 177 141 149 112 74 139 96 55 144 102 56 137 94 47 151 107 61 155 111 65 152 109 63 140 101 55 107 76 38 91 60 34 84 61 23 105 99 25 132 142 34 118 141 20 
150 104 63 153 109 62 157 112 67 162 117 78 175 131 96 190 145 107 166 124 84 202 168 133 224 197 168 197 175 148 192 165 133 180 144 107 146 106 64 126 82 40 141 97 52 156 112 66 153 109 61 115 74 29 77 43 14 79 50 25 93 73 33 126 117 47 133 134 39 119 116 31 
135 90 45 139 94 49 153 108 68 163 117 83 166 120 82 184 136 100 166 118 88 150 110 75 184 149 110 156 121 86 158 123 87 168 130 92 149 109 71 135 91 51 130 85 43 132 88 43 128 84 37 127 83 36 135 92 52 143 105 66 139 108 62 136 112 52 127 105 39 121 92 39 
122 76 41 134 88 49 142 98 53 150 106 56 153 106 58 148 99 63 135 87 59 127 82 44 153 109 60 166 121 77 143 99 59 130 88 51 128 87 52 151 108 70 152 106 65 135 90 48 139 95 50 155 110 63 161 113 65 154 107 63 154 112 67 143 105 54 130 93 44 132 90 46 
131 88 34 126 82 35 138 94 49 144 100 53 142 95 53 137 92 51 120 78 34 131 87 41 145 99 52 144 101 57 137 94 54 127 83 48 126 82 51 139 94 60 153 108 69 149 104 63 140 95 53 135 91 46 147 103 57 148 105 59 149 108 62 149 109 63 137 101 54 143 107 57 
